<svg width="143" height="143" viewBox="0 0 143 143" fill="none" xmlns="http://www.w3.org/2000/svg">
<g filter="url(#filter0_d_7_38)">
<circle cx="71.5" cy="66.5" r="61.5" fill="white"/>
</g>
<path fill-rule="evenodd" clip-rule="evenodd" d="M47.3043 115.035C29.9014 106.07 18 87.9247 18 67C18 37.1766 42.1766 13 72 13C101.823 13 126 37.1766 126 67C126 87.9247 114.099 106.07 96.6957 115.035C94.3386 100.612 88.9693 88.9555 82.0917 83.1013C87.4429 79.7403 91 73.7855 91 67C91 56.5066 82.4934 48 72 48C61.5066 48 53 56.5066 53 67C53 73.7855 56.5571 79.7403 61.9083 83.1013C55.0307 88.9555 49.6614 100.612 47.3043 115.035Z" fill="#66C762"/>
<defs>
<filter id="filter0_d_7_38" x="0" y="0" width="143" height="143" filterUnits="userSpaceOnUse" color-interpolation-filters="sRGB">
<feFlood flood-opacity="0" result="BackgroundImageFix"/>
<feColorMatrix in="SourceAlpha" type="matrix" values="0 0 0 0 0 0 0 0 0 0 0 0 0 0 0 0 0 0 127 0" result="hardAlpha"/>
<feOffset dy="5"/>
<feGaussianBlur stdDeviation="5"/>
<feComposite in2="hardAlpha" operator="out"/>
<feColorMatrix type="matrix" values="0 0 0 0 0 0 0 0 0 0 0 0 0 0 0 0 0 0 0.25 0"/>
<feBlend mode="normal" in2="BackgroundImageFix" result="effect1_dropShadow_7_38"/>
<feBlend mode="normal" in="SourceGraphic" in2="effect1_dropShadow_7_38" result="shape"/>
</filter>
</defs>
</svg>
